<?xml version="1.0" encoding="utf-8"?>
<!-- Generator: Adobe Illustrator 21.0.0, SVG Export Plug-In . SVG Version: 6.00 Build 0)  -->
<svg version="1.1" id="Capa_1" xmlns="http://www.w3.org/2000/svg" xmlns:xlink="http://www.w3.org/1999/xlink" x="0px" y="0px"
	 viewBox="0 0 512 512" style="enable-background:new 0 0 512 512;" xml:space="preserve">
<style type="text/css">
	.st0{fill:#3A4855;}
</style>
<g>
	<path class="st0" d="M1111.2,228.8H658.8c-15,0-27.2,12.2-27.2,27.2s12.2,27.2,27.2,27.2h452.4c15,0,27.2-12.2,27.2-27.2
		S1126.2,228.8,1111.2,228.8z"/>
	<path class="st0" d="M658.8,129.8h452.4c15,0,27.2-12.2,27.2-27.2s-12.2-27.2-27.2-27.2H658.8c-15,0-27.2,12.2-27.2,27.2
		S643.8,129.8,658.8,129.8z"/>
	<path class="st0" d="M1111.2,382.2H658.8c-15,0-27.2,12.2-27.2,27.2s12.2,27.2,27.2,27.2h452.4c15,0,27.2-12.2,27.2-27.2
		S1126.2,382.2,1111.2,382.2z"/>
</g>
<path class="st0" d="M76,114.6L397.4,436c10.6,10.6,28,10.6,38.6,0c10.6-10.6,10.6-28,0-38.6L114.6,76c-10.6-10.6-28-10.6-38.6,0
	S65.3,103.9,76,114.6z"/>
<path class="st0" d="M397.4,76L76,397.4c-10.6,10.6-10.6,28,0,38.6c10.6,10.6,28,10.6,38.6,0L436,114.6c10.6-10.6,10.6-28,0-38.6
	C425.4,65.3,408.1,65.3,397.4,76z"/>
</svg>
