<?xml version="1.0" encoding="utf-8"?>
<!-- Generator: Adobe Illustrator 21.0.0, SVG Export Plug-In . SVG Version: 6.00 Build 0)  -->
<svg version="1.1" id="Capa_1" xmlns="http://www.w3.org/2000/svg" xmlns:xlink="http://www.w3.org/1999/xlink" x="0px" y="0px"
	 viewBox="0 0 512 512" style="enable-background:new 0 0 512 512;" xml:space="preserve">
<style type="text/css">
	.st0{fill:#3A4855;}
</style>
<g>
	<path class="st0" d="M482.2,228.8H29.8c-15,0-27.2,12.2-27.2,27.2s12.2,27.2,27.2,27.2h452.4c15,0,27.2-12.2,27.2-27.2
		S497.2,228.8,482.2,228.8z"/>
	<path class="st0" d="M29.8,129.8h452.4c15,0,27.2-12.2,27.2-27.2s-12.2-27.2-27.2-27.2H29.8c-15,0-27.2,12.2-27.2,27.2
		S14.8,129.8,29.8,129.8z"/>
	<path class="st0" d="M482.2,382.2H29.8c-15,0-27.2,12.2-27.2,27.2s12.2,27.2,27.2,27.2h452.4c15,0,27.2-12.2,27.2-27.2
		S497.2,382.2,482.2,382.2z"/>
</g>
</svg>
